<svg xmlns="http://www.w3.org/2000/svg" viewBox="0 0 1078.41 242.93"><defs><style>.cls-1{fill:#fff;fill-rule:evenodd;}.cls-2{fill:#ebf20f;}</style></defs><title>Asset 3</title><g id="Layer_2" data-name="Layer 2"><g id="Calque_1" data-name="Calque 1"><path id="Exclude" class="cls-1" d="M921.74,102.3a19,19,0,0,1-12.59,17.87,2.48,2.48,0,0,0,0,4.74,19,19,0,0,1,12.59,17.87v81a19,19,0,0,1-37.93,0h0v-81a19,19,0,0,1,13-18,2.33,2.33,0,0,0,0-4.49,19,19,0,1,1,25-18Zm-647-19.42a19,19,0,0,0-19,19h0V143a19,19,0,0,0,19,19h.78c5.88-.24,12.47,0,16.63,4.12s4.36,10.76,4.12,16.64c0,.25,0,.51,0,.77v40.48a19,19,0,0,0,17,18.87,17.87,17.87,0,0,0,1.94.1h81a19,19,0,0,0,19-19V102.48a19,19,0,0,0-37.94,0V189A15.94,15.94,0,0,1,361.31,205H350.15A15.94,15.94,0,0,1,334.21,189v-5.58a19,19,0,0,0-19-19h0c-5.85,0-12.36-.34-16.51-4.48l-.52-.52c-4.14-4.15-4.48-10.66-4.48-16.51V101.85a19,19,0,0,0-19-19Zm337.63,19.6a19,19,0,0,0-19-19h-81a19,19,0,0,0,0,37.93h60.73a1.28,1.28,0,0,1,0,2.55H512.45a19,19,0,0,0-19,19h0v.35c.11,6-.14,12.6-4.35,16.81s-10.87,4.46-16.82,4.36H472a19,19,0,0,0,0,37.94h.22c6-.07,12.66.2,16.88,4.42s4.49,10.91,4.43,16.88v.21a19,19,0,0,0,19,19h81a19,19,0,0,0,19-19V102.48Zm-53.87,59.45H512.45c-6,0-12.76.27-17,4.51s-4.5,11-4.5,17v.21c-.07,6,.2,12.65,4.43,16.88s10.9,4.49,16.87,4.43h46.28A15.94,15.94,0,0,0,574.46,189h0V177.87a15.94,15.94,0,0,0-15.94-15.94ZM669.11,83.55a19,19,0,0,0-19,19V224a19,19,0,0,0,19,19h40.48a19,19,0,1,0,0-37.93H704a15.94,15.94,0,0,1-15.94-15.94V102.51a19,19,0,0,0-19-19Zm97.23,80a19,19,0,0,0,19,19h41.76a19,19,0,0,0,0-37.93H785.31a19,19,0,0,0-19,19Zm212.14-42.23a19,19,0,1,1,0-37.93h81a19,19,0,1,1,0,37.93h-5.58a15.93,15.93,0,0,0-15.93,15.94v86.54a19,19,0,0,1-37.94,0V137.23a15.94,15.94,0,0,0-15.94-15.94Z"/><path class="cls-2" d="M127.89,109a18.89,18.89,0,0,1-34,11.29l-.06-.09-2.08-3.61,0,0A18.88,18.88,0,1,1,127.89,109Z"/><path class="cls-2" d="M194.43,224a18.9,18.9,0,0,1-35,10l-.1-.16-.55-1-1.11-1.92,0,0v0l0,0-11.17-19.36.06,0a21.31,21.31,0,0,0-11.37-36.1,21,21,0,0,0-3.64-.31,21.48,21.48,0,0,0-5.66.76l-10-17.27v0l-.07-.12-1.31-2.25-.06-.11,0-.06a18.93,18.93,0,0,1,33-18.32l.87,1.53,10.47,18.12a20.65,20.65,0,0,0-2.17,4.75,21.2,21.2,0,0,0,20.22,27.54,5.62,5.62,0,0,0,.58,0l1.71,2.94,12.07,20.93.11.19,1.13,2A18.83,18.83,0,0,1,194.43,224Z"/><path class="cls-2" d="M218,109a108.45,108.45,0,0,1-20.42,63.51,96.7,96.7,0,0,1-6.12,7.74s0,0,0,.05c-.21.25-.42.5-.64.74a18.86,18.86,0,0,1-14,6.18,6.52,6.52,0,0,1-.76,0,18.88,18.88,0,0,1-16-27.65,20.1,20.1,0,0,1,2.14-3.23c.21-.22.42-.46.61-.69a69.82,69.82,0,0,0,5-6.48,71,71,0,1,0-49.67,30.52,75,75,0,0,0,8-1.5l.2-.05.08,0a.45.45,0,0,0,.11,0,.38.38,0,0,0,.1,0l.18,0H127l.09,0,.09,0a18.89,18.89,0,0,1,18.11,31.37,19,19,0,0,1-8.05,5h-.05c-.56.17-1.12.3-1.69.43a.17.17,0,0,1-.12,0c-3.18.81-6.42,1.44-9.7,1.95h0A109,109,0,1,1,218,109Z"/></g></g></svg>