<svg xmlns="http://www.w3.org/2000/svg" width="91.948" height="25.666" viewBox="0 0 91.948 25.666">
  <g id="Groupe_29" data-name="Groupe 29" transform="translate(0 -3.345)">
    <g id="Groupe_3" data-name="Groupe 3">
      <path id="Tracé_2" data-name="Tracé 2" d="M-3.6-69.52H3.3l1.109-4.232h9.347l1.267-4.73H5.7l.475-1.856h9.347l1.448-5.341H.564Z" transform="translate(3.6 89.025)" fill="#fff"/>
      <path id="Tracé_67" data-name="Tracé 67" d="M-.612-.2A40.355,40.355,0,0,0,6.681.357c3.349,0,5.049-.323,6.1-2.023a6.649,6.649,0,0,0,.8-2.856c0-2.55-1.7-2.635-3.638-2.635-2.669,0-3.009-.136-3.009-.629,0-.578.476-.867,2.5-.867a40.118,40.118,0,0,1,4.947.374l1.071-3.757a49.549,49.549,0,0,0-6.919-.459,16.611,16.611,0,0,0-4.046.357c-2.04.578-3.4,2.7-3.4,5.321,0,1.9,1.717,2.431,3.281,2.431,3.043,0,3.349.119,3.349.714,0,.8-1.19.8-1.751.8A47.481,47.481,0,0,1,.153-3.264Z" transform="translate(9.992 28.654)" fill="#fff"/>
      <path id="Tracé_65" data-name="Tracé 65" d="M-1.33,0H3.458l.868-1.456H7.854V0h4.312V-10H4.676ZM7.854-3.864H5.614l2.212-3.6h.028Zm4.984,3.7a33.233,33.233,0,0,0,6.006.462C21.6.294,23,.028,23.87-1.372a5.476,5.476,0,0,0,.658-2.352c0-2.1-1.4-2.17-3-2.17-2.2,0-2.478-.112-2.478-.518,0-.476.392-.714,2.058-.714a33.038,33.038,0,0,1,4.074.308l.882-3.094a40.805,40.805,0,0,0-5.7-.378A13.68,13.68,0,0,0,17.038-10a4.3,4.3,0,0,0-2.8,4.382c0,1.568,1.414,2,2.7,2,2.506,0,2.758.1,2.758.588,0,.658-.98.658-1.442.658a39.1,39.1,0,0,1-4.788-.322ZM27.188,0h4.354l1.736-6.692h2.814l.9-3.3h-10l-.9,3.3h2.828Z" transform="translate(21.5 14)" fill="#fff"/>
      <path id="Tracé_66" data-name="Tracé 66" d="M-.33,0h8.1l.539-2.09H3.619l.187-.7H8.492l.44-1.694H4.246l.22-.88H9.152L9.8-7.854H1.694ZM13.7-5.654h1.463c.462,0,.726.176.726.55a1.042,1.042,0,0,1-1.1,1.078H13.277ZM8.822,0h3.355l.7-2.728L14.509,0h3.927L16.159-3.223h.594c1.419,0,2.519-.9,2.519-2.882,0-1.111-.319-1.749-1.815-1.749h-6.49ZM20.449,0h5.093l4.224-7.854h-3.7L23.562-2.2H23.54l.33-5.654H20.449Zm8.019,0h3.311l2.134-7.854H30.547ZM41.5-2.409a14.941,14.941,0,0,1-2.508.341c-1.188,0-1.716-.231-1.716-1.012a2.109,2.109,0,0,1,.572-1.485A3.488,3.488,0,0,1,40.3-5.192a12.785,12.785,0,0,1,1.9.154l.693-2.6a19.892,19.892,0,0,0-4.026-.451A4.812,4.812,0,0,0,35.31-6.974a9.349,9.349,0,0,0-1.628,4.928c0,1.815,1.078,2.277,3.443,2.277a18.869,18.869,0,0,0,3.784-.4ZM41.888,0h8.1l.539-2.09H45.837l.187-.7H50.71l.44-1.694H46.464l.22-.88H51.37l.649-2.486H43.912Z" transform="translate(25.694 24.325)" fill="#fff"/>
      <path id="Tracé_1" data-name="Tracé 1" d="M1.768.336H27.936L26.168,2.208H0Z" transform="translate(64.012 12.593)" fill="#fff"/>
    </g>
  </g>
</svg>
