<svg xmlns="http://www.w3.org/2000/svg" width="30" height="26.936" viewBox="0 0 30 26.936">
  <g id="bande-de-cinema" transform="translate(0 0.041)">
    <path id="Tracé_12" data-name="Tracé 12" d="M3.679,3.713A1.511,1.511,0,0,1,2.148,5.227,1.529,1.529,0,0,1,.618,3.7a1.554,1.554,0,0,1,1.555-1.54,1.538,1.538,0,0,1,1.506,1.55Z" fill="#f1ea1b" stroke="#f1ea1b" stroke-width="0.083"/>
    <path id="Tracé_13" data-name="Tracé 13" d="M26.121,3.058a1.528,1.528,0,0,1,0-3.057,1.541,1.541,0,0,1,1.546,1.543,1.532,1.532,0,0,1-1.54,1.513Z" fill="#f1ea1b" stroke="#f1ea1b" stroke-width="0.083"/>
    <path id="Tracé_14" data-name="Tracé 14" d="M29.382,26.893c-.121-.006-.235,0-.347-.019a.287.287,0,0,1-.272-.287.279.279,0,0,1,.256-.328,2.683,2.683,0,0,1,.735.012.432.432,0,0,1,.241.3.263.263,0,0,1-.251.3c-.121.018-.246.016-.362.022Z" fill="#f1ea1b"/>
    <path id="Tracé_15" data-name="Tracé 15" d="M12.077,2.286a.492.492,0,0,1-.09.177,5.29,5.29,0,0,1-.523.44.283.283,0,0,1-.415-.067.292.292,0,0,1,.025-.421,3.816,3.816,0,0,1,.5-.421.321.321,0,0,1,.5.292Z" fill="#f1ea1b"/>
    <path id="Tracé_16" data-name="Tracé 16" d="M9.7,4.266c-.049-.037-.179-.083-.213-.169a.4.4,0,0,1,.022-.339,2.682,2.682,0,0,1,.566-.477.373.373,0,0,1,.333.042.388.388,0,0,1,.1.3,1.428,1.428,0,0,1-.813.645Z" fill="#f1ea1b"/>
    <path id="Tracé_17" data-name="Tracé 17" d="M19.319,5.9c-.033.041-.086.166-.172.2a.4.4,0,0,1-.336-.038,2.538,2.538,0,0,1-.456-.545.38.38,0,0,1,.026-.336.377.377,0,0,1,.29-.12c.189.007.654.586.649.844Z" fill="#f1ea1b"/>
    <path id="Tracé_18" data-name="Tracé 18" d="M20.827,5.519a1.125,1.125,0,0,1-.141.234,5.729,5.729,0,0,1-.474.4.3.3,0,0,1-.444-.044.293.293,0,0,1,.041-.442,3,3,0,0,1,.48-.392.433.433,0,0,1,.341-.013c.086.037.132.165.2.256Z" fill="#f1ea1b"/>
    <path id="Tracé_19" data-name="Tracé 19" d="M19.978,6.592a.783.783,0,0,1,.192.125,5.328,5.328,0,0,1,.381.45.3.3,0,0,1-.032.445.29.29,0,0,1-.442-.028,4.057,4.057,0,0,1-.416-.5.324.324,0,0,1,.316-.49Z" fill="#f1ea1b"/>
    <path id="Tracé_20" data-name="Tracé 20" d="M10.609,2.612c-.034.046-.083.175-.168.207a.4.4,0,0,1-.339-.032,2.7,2.7,0,0,1-.473-.568.369.369,0,0,1,.049-.33.387.387,0,0,1,.3-.1,1.388,1.388,0,0,1,.632.824Z" fill="#f1ea1b"/>
    <path id="Tracé_21" data-name="Tracé 21" d="M11.912,4.166c-.032.043-.08.165-.166.205a.352.352,0,0,1-.313-.015,3.368,3.368,0,0,1-.5-.587.322.322,0,0,1,.029-.306.448.448,0,0,1,.32-.121c.174.007.627.583.63.824Z" fill="#f1ea1b"/>
    <path id="Tracé_22" data-name="Tracé 22" d="M19.245,6.853a.4.4,0,0,1-.071.163A5.2,5.2,0,0,1,18.6,7.5a.278.278,0,0,1-.388-.081.283.283,0,0,1,.007-.4,3.571,3.571,0,0,1,.546-.457.317.317,0,0,1,.475.293Z" fill="#f1ea1b"/>
    <path id="Tracé_23" data-name="Tracé 23" d="M.549,26.9a.745.745,0,0,1-.3-.032.539.539,0,0,1-.242-.278.252.252,0,0,1,.223-.317,2.145,2.145,0,0,1,.672,0,.393.393,0,0,1,.236.3c0,.1-.141.229-.251.293a.849.849,0,0,1-.339.031Z" fill="#f1ea1b"/>
    <path id="Tracé_24" data-name="Tracé 24" d="M28.016,26.26a2.009,2.009,0,0,0-.34-.025c-.127,0-.254,0-.381,0a2.309,2.309,0,0,0,.745-1.726q-.007-6.952,0-13.9A1.929,1.929,0,0,0,26,8.569q-11,0-22,0a1.931,1.931,0,0,0-2.03,2.042q0,6.952,0,13.9A3.1,3.1,0,0,0,2,24.978a2.434,2.434,0,0,0,.689,1.257H2.2c-.083,0-.167,0-.249,0-.2.018-.34.106-.352.322-.011.178.125.3.346.323a2.491,2.491,0,0,0,.249,0H27.656A2.462,2.462,0,0,0,28,26.874a.311.311,0,0,0,.019-.613Zm-1.364-9.846c-.007.253-.106.369-.354.375-.476.012-.953.007-1.43,0a.324.324,0,0,1-.355-.348q-.01-.808,0-1.617a.314.314,0,0,1,.358-.337c.477,0,.953-.006,1.43,0,.263,0,.345.1.352.367s0,.519,0,.777,0,.519,0,.777Zm-2.141-5.432c.006-.274.108-.37.389-.375q.684-.014,1.368,0c.291.006.379.109.384.406,0,.249,0,.5,0,.746s0,.519,0,.778-.1.369-.353.376c-.476.013-.954.013-1.43,0-.252-.007-.352-.116-.357-.377q-.015-.778,0-1.555ZM3.349,11c0-.285.09-.39.362-.4.476-.012.953-.007,1.43,0a.322.322,0,0,1,.35.352q.007.809,0,1.617a.313.313,0,0,1-.333.336c-.487.009-.975.013-1.461,0-.249-.007-.339-.123-.344-.384s0-.519,0-.778,0-.5,0-.746Zm0,3.831c.008-.249.091-.339.342-.344.487-.009.974,0,1.461,0a.3.3,0,0,1,.334.327c.008.539.012,1.078,0,1.617-.006.25-.119.351-.377.356q-.683.014-1.368,0c-.286,0-.388-.116-.394-.4,0-.259,0-.519,0-.777s-.007-.519,0-.777Zm2.135,9.376a.307.307,0,0,1-.343.322c-.477,0-.954.006-1.43,0-.253,0-.355-.11-.362-.362-.007-.269,0-.539,0-.809s-.007-.519,0-.778c.007-.243.1-.342.342-.345.487-.007.975,0,1.462,0a.3.3,0,0,1,.333.328c.008.549.009,1.1,0,1.648Zm0-3.944c-.006.292-.112.391-.4.4q-.668.01-1.337,0c-.3,0-.4-.111-.4-.421,0-.249,0-.5,0-.746s0-.5,0-.746c.006-.288.089-.38.366-.384q.7-.01,1.4,0c.277,0,.371.094.376.379Q5.506,19.507,5.491,20.269Zm19.02-1.539c.006-.277.1-.361.391-.364.456,0,.913-.006,1.368,0,.3,0,.376.089.382.4,0,.249,0,.5,0,.746s0,.5,0,.746c0,.289-.106.4-.388.4q-.684.011-1.368,0c-.271,0-.38-.107-.386-.379q-.015-.777,0-1.555Zm2.139,5.451c-.007.236-.11.347-.342.351-.487.008-.974,0-1.462,0a.307.307,0,0,1-.334-.331q-.012-.824,0-1.648a.3.3,0,0,1,.342-.318c.477,0,.954,0,1.43,0,.259,0,.356.1.363.357s0,.539,0,.809.007.519,0,.778Z" fill="#f1ea1b"/>
    <path id="Tracé_25" data-name="Tracé 25" d="M3.033,3.7a.878.878,0,1,1-1.756,0,.878.878,0,0,1,1.756,0Z" fill="#f1ea1b"/>
    <path id="Tracé_26" data-name="Tracé 26" d="M26.119,2.409a.878.878,0,1,1,.9-.879.882.882,0,0,1-.9.879Z" fill="#f1ea1b"/>
    <path id="Soustraction_2" data-name="Soustraction 2" d="M-244.169-2126.883h0a4.847,4.847,0,0,1-4.827-4.843,4.789,4.789,0,0,1,1.412-3.416,4.809,4.809,0,0,1,3.421-1.411,4.8,4.8,0,0,1,3.418,1.413,4.8,4.8,0,0,1,1.408,3.42A4.842,4.842,0,0,1-244.169-2126.883Zm-1.6-4.838v.56q0,.561,0,1.122a.67.67,0,0,0,.371.667.653.653,0,0,0,.284.068.792.792,0,0,0,.448-.159l.834-.568.119-.081.024-.017c.482-.327.98-.666,1.467-1a.745.745,0,0,0,.37-.593.755.755,0,0,0-.378-.6c-.42-.29-.856-.586-1.241-.847l-.048-.033c-.371-.252-.754-.513-1.129-.771a.836.836,0,0,0-.473-.177.605.605,0,0,0-.283.073.705.705,0,0,0-.365.7c0,.4,0,.794,0,1.179v.472Z" transform="translate(259.171 2149.294)" fill="#6e6ad6"/>
  </g>
</svg>
