<svg xmlns="http://www.w3.org/2000/svg" width="20.581" height="24.59" viewBox="0 0 20.581 24.59">
  <g id="Calque_1" data-name="Calque 1" transform="translate(-0.008 0.002)">
    <g id="Groupe_32" data-name="Groupe 32" transform="translate(0.008 -0.002)">
      <path id="Tracé_42" data-name="Tracé 42" d="M19.834,8.65H4.644c0-.015,0-.031,0-.047.064-.022.127-.044.191-.065q2.628-.857,5.258-1.713L19.1,3.9c.554-.18.66-.382.481-.93q-.29-.889-.58-1.778A1.5,1.5,0,0,0,16.9.118L.478,5.464c-.441.143-.556.366-.412.81.28.865.568,1.727.84,2.595A1.987,1.987,0,0,1,1,9.453q.006,6.741,0,13.48a1.5,1.5,0,0,0,1.637,1.654q8.155,0,16.31,0a2.172,2.172,0,0,0,.49-.04,1.494,1.494,0,0,0,1.149-1.56q0-6.793,0-13.585c0-.6-.147-.751-.753-.751Zm-2.2,1.04h1.905v3.15H16.558L17.63,9.69Zm-4.874,2.926c.309-.909.616-1.818.935-2.724.03-.084.133-.2.2-.2.874-.014,1.747-.009,2.653-.009l-.3.881c-.236.7-.469,1.394-.717,2.085-.029.082-.139.193-.213.193-.865.013-1.731.008-2.624.008.023-.09.036-.163.06-.233ZM9.879,9.694H12.67c-.222.65-.438,1.279-.653,1.908-.123.36-.239.723-.374,1.079a.274.274,0,0,1-.184.161c-.865.01-1.731.007-2.657.007.368-1.082.722-2.118,1.076-3.155Zm-4.2.938c.092-.27.179-.542.284-.807a.248.248,0,0,1,.173-.138c.874-.009,1.747-.006,2.657-.006l-.1.311c-.3.884-.6,1.769-.908,2.65-.029.083-.136.2-.209.2-.865.014-1.73.009-2.647.009.26-.765.507-1.491.754-2.217Zm-.769-.94c-.072.221-.136.425-.2.628-.266.778-.538,1.554-.8,2.334a.24.24,0,0,1-.275.2c-.527-.01-1.054,0-1.6,0V9.692H4.912ZM15.357,1.7q.961-.316,1.923-.628a.852.852,0,0,1,.32-.051.382.382,0,0,1,.145.04.354.354,0,0,1,.081.057.776.776,0,0,1,.184.33c.084.254.168.509.251.767L18.517,3l-.459.15c-.3.1-.6.2-.9.292l-.445.14a.209.209,0,0,1-.115-.008.25.25,0,0,1-.057-.026.147.147,0,0,1-.041-.034c-.437-.569-.865-1.146-1.31-1.742.067-.03.115-.057.167-.074Zm-3.049.99.788-.256c.3-.1.589-.2.887-.288a.336.336,0,0,1,.154,0,.115.115,0,0,1,.067.035c.224.29.445.582.667.879s.448.6.679.908h0L14.1,4.442l-.252.083c-.252.084-.5.169-.758.245a.422.422,0,0,1-.173.008l-.031-.008a.089.089,0,0,1-.043-.027c-.449-.578-.884-1.168-1.347-1.786l.816-.265ZM7.851,4.176c0-.008.006-.019.01-.036l.526-.172c.528-.173,1.062-.348,1.6-.521.12-.039.21-.067.282-.083l.051-.009a.357.357,0,0,1,.045,0h0a.245.245,0,0,1,.076.011.2.2,0,0,1,.035.015.319.319,0,0,1,.07.051,2.135,2.135,0,0,1,.217.266l.067.09.317.424.432.578.286.382c-.874.284-1.709.556-2.547.822l-.02,0H9.271a.188.188,0,0,1-.042-.008L9.2,5.977a.136.136,0,0,1-.054-.038c-.437-.58-.867-1.166-1.3-1.75,0,0,0-.006,0-.014ZM4.126,5.353C5,5.069,5.832,4.8,6.67,4.533a.205.205,0,0,1,.149.04.158.158,0,0,1,.037.033c.436.57.864,1.145,1.325,1.76-.642.21-1.246.411-1.852.605-.033.01-.066.023-.1.035-.067.026-.137.056-.205.083l-.051.02a1.149,1.149,0,0,1-.248.072l-.047,0a.478.478,0,0,1-.084,0,.316.316,0,0,1-.046-.01A.38.38,0,0,1,5.4,7.082l0,0a1.188,1.188,0,0,1-.161-.2c-.02-.031-.04-.062-.06-.094l-.04-.064L5.1,6.658c-.024-.035-.047-.07-.072-.1-.24-.318-.479-.637-.728-.972l-.173-.231h0Zm-2.967.969.735-.243c.243-.08.483-.16.724-.238a1.473,1.473,0,0,1,.375-.095.234.234,0,0,1,.149.049.323.323,0,0,1,.035.029,2.185,2.185,0,0,1,.219.268l.54.721.562.751-.671.218-1.984.645c-.019-.058-.038-.114-.056-.172Z" transform="translate(-0.008 0.002)" fill="#f1ea1b"/>
      <path id="Tracé_43" data-name="Tracé 43" d="M124.634,229.688c-.817-.568-1.644-1.123-2.466-1.684a1.106,1.106,0,0,0-1.223-.1,1.129,1.129,0,0,0-.6,1.072v3.354a1.126,1.126,0,0,0,.608,1.07,1.109,1.109,0,0,0,1.223-.1c.822-.562,1.649-1.116,2.466-1.684a1.125,1.125,0,0,0,0-1.931ZM124,230.818c-.79.533-1.575,1.073-2.365,1.606a.776.776,0,0,1-.209.067.917.917,0,0,1-.054-.213q0-.41,0-.819v-1.626c0-.269,0-.537,0-.806a.813.813,0,0,1,.059-.21c.035.012.072.02.108.031a.34.34,0,0,1,.1.042c.79.533,1.575,1.073,2.365,1.606.18.121.165.209,0,.325Z" transform="translate(-111.976 -211.934)" fill="#6e6ad6"/>
    </g>
  </g>
</svg>
