<svg xmlns="http://www.w3.org/2000/svg" width="24.86" height="23.522" viewBox="0 0 24.86 23.522">
  <g id="Calque_1" data-name="Calque 1" transform="translate(0.014 -0.002)">
    <g id="Groupe_33" data-name="Groupe 33" transform="translate(-0.014 0.002)">
      <path id="Tracé_44" data-name="Tracé 44" d="M24.845,21.335a1.015,1.015,0,0,1-.567.615c-.839.471-1.667.96-2.5,1.44-.5.289-.821.1-.853-.477a4.306,4.306,0,0,0-.126-.906,1.32,1.32,0,0,0-1.283-1c-.791,0-1.583.055-2.373.118a23.462,23.462,0,0,1-4.478.119,6.993,6.993,0,0,1-2.353-.628.919.919,0,0,0-.367-.1A10.245,10.245,0,0,1,.155,12.071,9.957,9.957,0,0,1,1.693,4.637,9.959,9.959,0,0,1,8.962.1,9.757,9.757,0,0,1,15.015,1.2a9.986,9.986,0,0,1,5.333,7.339,9.879,9.879,0,0,1-1.01,6.443A10.017,10.017,0,0,1,14.8,19.448a.908.908,0,0,0-.083.049s0,.015-.014.072c.528-.1,1.04-.188,1.549-.3a15.538,15.538,0,0,0,2.755-.985,4.367,4.367,0,0,1,5.529,1.828,6.275,6.275,0,0,1,.307.782v.437ZM.967,10.238A9.294,9.294,0,1,0,10.28.97,9.294,9.294,0,0,0,.967,10.238ZM16.59,20.246l-.017-.037c.072,0,.145,0,.216,0,.814-.055,1.627-.123,2.442-.166A2.3,2.3,0,0,1,21.644,21.5c.1.233.149.482.228.741l1.794-1.039a.322.322,0,0,0,.142-.464c-.017-.036-.035-.072-.055-.108a3.343,3.343,0,0,0-3.982-1.595c-1.075.357-2.122.8-3.181,1.208Z" transform="translate(0.014 -0.002)" fill="#fff"/>
      <path id="Tracé_45" data-name="Tracé 45" d="M164.9,140.769a2.407,2.407,0,1,1,2.209,2.492,2.417,2.417,0,0,1-2.209-2.492Zm3.862.073a1.431,1.431,0,0,0-1.43-1.462,1.327,1.327,0,0,0-1.412,1.312,1.464,1.464,0,0,0,1.43,1.476A1.3,1.3,0,0,0,168.76,140.842Z" transform="translate(-152.194 -127.762)" fill="#fff"/>
      <path id="Tracé_46" data-name="Tracé 46" d="M43.783,140.793a2.4,2.4,0,0,1-2.432,2.421,2.408,2.408,0,1,1,2.432-2.42Zm-2.408,1.457a1.449,1.449,0,1,0-1.459-1.495A1.469,1.469,0,0,0,41.375,142.25Z" transform="translate(-35.957 -127.74)" fill="#fff"/>
      <path id="Tracé_47" data-name="Tracé 47" d="M43.847,67.955A2.389,2.389,0,0,1,41.3,70.336a2.439,2.439,0,0,1-2.274-2.56,2.467,2.467,0,0,1,2.354-2.266A2.413,2.413,0,0,1,43.847,67.955Zm-2.43,1.432A1.451,1.451,0,0,0,42.9,67.949a1.471,1.471,0,0,0-1.45-1.482,1.46,1.46,0,0,0-.037,2.919Z" transform="translate(-36.021 -60.465)" fill="#fff"/>
      <path id="Tracé_48" data-name="Tracé 48" d="M101.969,31.7a2.413,2.413,0,1,1,2.457,2.436,2.433,2.433,0,0,1-2.457-2.436Zm2.436,1.5a1.474,1.474,0,1,0-.021-2.947A1.474,1.474,0,0,0,104.4,33.2Z" transform="translate(-94.115 -27.043)" fill="#fff"/>
      <path id="Tracé_49" data-name="Tracé 49" d="M101.97,177.093a2.412,2.412,0,1,1,2.507,2.4A2.418,2.418,0,0,1,101.97,177.093Zm3.9.022a1.476,1.476,0,1,0-2.953-.038,1.5,1.5,0,0,0,1.474,1.492,1.483,1.483,0,0,0,1.479-1.455Z" transform="translate(-94.115 -161.219)" fill="#fff"/>
      <path id="Tracé_50" data-name="Tracé 50" d="M168.27,71.935a2.292,2.292,0,0,1-2.363-2.2,2.4,2.4,0,0,1,2.407-2.5,2.273,2.273,0,0,1,2.34,2.27,2.416,2.416,0,0,1-2.384,2.424Zm1.426-2.423a1.421,1.421,0,0,0-1.435-1.426,1.448,1.448,0,1,0-.013,2.895,1.437,1.437,0,0,0,1.449-1.469Z" transform="translate(-153.129 -62.062)" fill="#fff"/>
      <path id="Tracé_51" data-name="Tracé 51" d="M108.36,110.256a1.921,1.921,0,1,1,1.924,1.934A1.929,1.929,0,0,1,108.36,110.256Zm1.906.983a.979.979,0,1,0-.975-.993.975.975,0,0,0,.975.993Z" transform="translate(-100.014 -99.996)" fill="#fff"/>
    </g>
  </g>
</svg>
