<svg xmlns="http://www.w3.org/2000/svg" width="75" height="14" viewBox="0 0 75 14">
  <g id="Groupe_1" data-name="Groupe 1" transform="translate(-402.5 -1267)">
    <path id="Polygone_1" data-name="Polygone 1" d="M7.5,0,9.45,5.105,15,5.348l-4.345,3.4L12.135,14,7.5,10.995,2.865,14l1.48-5.255L0,5.348l5.55-.242Z" transform="translate(402.5 1267)" fill="#ffc498"/>
    <path id="Polygone_2" data-name="Polygone 2" d="M7.5,0,9.45,5.105,15,5.348l-4.345,3.4L12.135,14,7.5,10.995,2.865,14l1.48-5.255L0,5.348l5.55-.242Z" transform="translate(417.5 1267)" fill="#ffc498"/>
    <path id="Polygone_3" data-name="Polygone 3" d="M7.5,0,9.45,5.105,15,5.348l-4.345,3.4L12.135,14,7.5,10.995,2.865,14l1.48-5.255L0,5.348l5.55-.242Z" transform="translate(432.5 1267)" fill="#ffc498"/>
    <path id="Polygone_4" data-name="Polygone 4" d="M7.5,0,9.45,5.105,15,5.348l-4.345,3.4L12.135,14,7.5,10.995,2.865,14l1.48-5.255L0,5.348l5.55-.242Z" transform="translate(447.5 1267)" fill="#ffc498"/>
    <path id="Polygone_5" data-name="Polygone 5" d="M7.5,0,9.45,5.105,15,5.348l-4.345,3.4L12.135,14,7.5,10.995,2.865,14l1.48-5.255L0,5.348l5.55-.242Z" transform="translate(462.5 1267)" fill="#ffc498"/>
  </g>
</svg>
